<svg width="396" height="136.46183584974662" viewBox="0 -23 394.659793814433 136" class="looka-1j8o68f"><defs id="SvgjsDefs8559"></defs><g id="SvgjsG8560" featurekey="symbolContainer" transform="matrix(0.85,0,0,0.85,15,-23)" fill="#000000"><rect xmlns="http://www.w3.org/2000/svg" width="101" height="120" rx="10" ry="10"></rect></g><g id="SvgjsG8561" featurekey="monogramFeature-0" transform="matrix(1.835022155576793,0,0,1.835022155576793,22.53704557224449,-40.99710390118857)" fill="#ffffff"><path d="M6.8555 40.897999999999996 l-2.6953 0 l5.625 -24.551 l14.707 0 l-5.6836 24.551 l2.7246 0 l-1.9336 7.998 l16.26 0 l-2.5195 11.074 l-30.908 0 z"></path></g><g id="SvgjsG8562" featurekey="nameFeature-0" transform="matrix(2.103673770957545,0,0,2.103673770957545,102.63412116398007,-11.243525516209456)" fill="#000000"><path d="M19.992 19.412 c1.2128 0 2.196 0.98328 2.196 2.196 l0 16.196 c0 1.2128 -0.98328 2.196 -2.196 2.196 c-1.1071 0 -2.0201 -0.81968 -2.1716 -1.885 c-1.677 1.1856 -3.721 1.885 -5.9264 1.885 c-5.6764 0 -10.294 -4.6176 -10.294 -10.294 s4.6176 -10.294 10.294 -10.294 c2.2054 0 4.2492 0.69944 5.9264 1.885 c0.15152 -1.0654 1.0645 -1.885 2.1716 -1.885 z M11.894 35.608 c3.2543 0 5.902 -2.6476 5.902 -5.902 s-2.6476 -5.902 -5.902 -5.902 s-5.902 2.6476 -5.902 5.902 s2.6476 5.902 5.902 5.902 z M38.077 27.509999999999998 c3.4434 0 6.2452 2.8016 6.2452 6.2452 s-2.8016 6.2452 -6.2452 6.2452 l-8.098 0 c-1.2128 0 -2.196 -0.98328 -2.196 -2.196 s0.98328 -2.196 2.196 -2.196 l8.098 0 c1.0217 0 1.8529 -0.8312 1.8529 -1.8529 s-0.8312 -1.8529 -1.8529 -1.8529 l-8.098 0 c-3.4434 0 -6.2452 -2.8016 -6.2452 -6.2452 s2.8016 -6.2452 6.2452 -6.2452 l8.098 0 c1.2128 0 2.196 0.98328 2.196 2.196 s-0.98328 2.196 -2.196 2.196 l-8.098 0 c-1.0217 0 -1.8529 0.8312 -1.8529 1.8529 s0.8312 1.8529 1.8529 1.8529 l8.098 0 z M56.327 35.608 c1.2128 0 2.1961 0.98332 2.1961 2.1961 s-0.98328 2.196 -2.196 2.196 c-5.7668 0 -10.459 -4.692 -10.459 -10.459 l0 -15.345 c0 -1.2128 0.98328 -2.196 2.196 -2.196 s2.196 0.98328 2.196 2.196 l0 5.2217 l6.0666 0 c1.2128 0 2.196 0.98328 2.196 2.196 s-0.98328 2.196 -2.196 2.196 l-6.0666 0 l0 5.7312 c0 3.3452 2.7215 6.0668 6.0668 6.0668 z M70.941 12 c5.7668 0 10.459 4.692 10.458 10.458 l0 7.0824 c0 5.7668 -4.692 10.459 -10.459 10.459 c-0.58252 0 -1.1411 -0.23141 -1.5529 -0.64316 l-8.2628 -8.2628 c-0.85784 -0.85756 -0.85784 -2.248 0 -3.1056 c0.85756 -0.85756 2.248 -0.85756 3.1056 0 l7.5604 7.5604 c2.9441 -0.41476 5.2164 -2.9507 5.2164 -6.0072 l0 -7.0824 c0 -3.3452 -2.7215 -6.0668 -6.0668 -6.0668 l-6.0666 0 l0 3.9768 l7.6196 7.6196 c0.85784 0.85756 0.85784 2.248 0 3.1056 c-0.85756 0.85756 -2.248 0.85756 -3.1056 0 l-8.2628 -8.2628 c-0.41176 -0.41176 -0.64316 -0.9704 -0.64316 -1.5529 l0 -7.0824 c0 -1.2128 0.98328 -2.196 2.196 -2.196 l8.2627 0 z M93.63000000000001 19.412 c1.2128 0 2.196 0.98328 2.196 2.196 s-0.98328 2.196 -2.196 2.196 c-3.2543 0 -5.902 2.6476 -5.902 5.902 l0 8.098 c0 1.2128 -0.98328 2.196 -2.196 2.196 s-2.196 -0.98328 -2.196 -2.196 l0 -16.196 c0 -1.2128 0.98328 -2.196 2.196 -2.196 c1.1071 0 2.0201 0.81996 2.1716 1.885 c1.677 -1.1856 3.721 -1.885 5.9264 -1.885 z M106.04400000000001 19.412 c5.6764 0 10.294 4.6176 10.294 10.294 s-4.6176 10.294 -10.294 10.294 s-10.294 -4.6176 -10.294 -10.294 s4.6176 -10.294 10.294 -10.294 z M106.04400000000001 35.608 c3.2543 0 5.902 -2.6476 5.902 -5.902 s-2.6476 -5.902 -5.902 -5.902 s-5.902 2.6476 -5.902 5.902 s2.6476 5.902 5.902 5.902 z M128.551 19.412 c5.6612 0 10.266 4.6056 10.266 10.267 s-4.6056 10.267 -10.267 10.267 c-2.1837 0 -4.2088 -0.68764 -5.8744 -1.8543 l0 7.1249 c0 1.2128 -0.98328 2.196 -2.196 2.196 s-2.196 -0.98328 -2.196 -2.196 l0 -23.608 c0 -1.2128 0.98328 -2.196 2.196 -2.196 c1.1027 0 2.013 0.81364 2.1697 1.873 c1.6709 -1.1782 3.7059 -1.873 5.9012 -1.873 z M128.551 35.5528 c3.2392 0 5.8744 -2.6353 5.8744 -5.8744 s-2.6353 -5.8744 -5.8744 -5.8744 s-5.8744 2.6353 -5.8744 5.8744 s2.6353 5.8744 5.8744 5.8744 z"></path></g></svg>